@startuml

abstract class PaymentSystem {
    +processPayment(amount: float): void
}

class YandexMoney implements PaymentSystem {
    +processPayment(amount: float): void
}

class SBP implements PaymentSystem {
    +processPayment(amount: float): void
}

class DebitCard implements PaymentSystem {
    +processPayment(amount: float): void
}

abstract class Payment {
    -paymentSystem: PaymentSystem
    +setPaymentSystem(paymentSystem: PaymentSystem): void
    +makePayment(amount: float): void
}

class OnlinePayment extends Payment {
    +makePayment(amount: float): void
}

class OfflinePayment extends Payment {
    +makePayment(amount: float): void
}

PaymentSystem <|-- YandexMoney
PaymentSystem <|-- SBP
PaymentSystem <|-- DebitCard

Payment <|-- OnlinePayment
Payment <|-- OfflinePayment

Payment "1" -- "1" PaymentSystem

@enduml
